<svg xmlns="http://www.w3.org/2000/svg" width="241" height="23" viewBox="0 0 241 23" fill="none">
  <path d="M110.43 13.5757L115.149 4.53371L119.867 13.5757H110.434H110.43ZM215.933 22.2552H221.103V7.07716L235.708 22.2552H240.878V0.333827H235.708V15.2417L221.586 0.333827H215.93V22.2552H215.933ZM179.768 22.2552H203.476V18.0808H184.97V13.2419H197.337V9.06742H184.97V4.50191H202.901V0.32747H179.768V22.2489V22.2552ZM157.634 10.0085H145.661V4.47648H157.605C159.421 4.47648 160.689 5.65601 160.689 7.31879C160.689 8.89256 159.421 10.0085 157.634 10.0085ZM140.456 22.2552H145.657V14.1511H155.183L160.292 22.2552H166.218L160.715 13.7569C163.77 12.8508 165.824 11.0354 165.824 7.40781C165.824 3.20475 162.466 0.330647 157.72 0.330647H140.453V22.2521L140.456 22.2552ZM100.816 22.2552H106.167L108.494 17.6897H121.8L124.127 22.2552H129.659L118.29 0.333827H112.271L100.81 22.2552H100.816ZM71.7254 22.2552H93.1954V17.871H76.9872V0.333827H71.7254V22.2552ZM51.2856 14.574C54.6112 14.574 57.0624 13.5153 58.935 12.0655L55.4569 9.52524C54.3377 10.3423 52.9484 10.673 51.346 10.673C48.4433 10.673 46.4785 9.25182 46.4785 7.287C46.4785 5.32218 48.4433 3.90102 51.346 3.90102C52.8276 3.90102 54.2201 4.20306 55.3361 5.04876L58.8142 2.47987C56.9384 1.02692 54.4904 0 51.2856 0C45.814 0 41.9416 3.08394 41.9416 7.287C41.9416 11.4901 45.7504 14.574 51.2856 14.574ZM45.5406 22.2552H56.0323V18.386H45.5406V22.2552ZM0 22.2552H5.02015V7.95148L13.9095 22.2552H16.4498L25.3392 7.74164V22.2552H30.3593V0.333827H24.4935L15.2703 15.5723L6.13927 0.333827H0V22.2552Z" fill="white"/>
</svg>
